<svg enable-background="new 0 0 511.999 511.999" viewBox="0 0 511.999 511.999" xmlns="http://www.w3.org/2000/svg"><path d="m226.44 8.057c-8.341 0-15.103 6.761-15.103 15.103v187.441c16.132 11.35 27.415 30.021 29.744 51.599h.462v-239.041c-.001-8.34-6.763-15.102-15.103-15.102z" fill="#ce3043"/><path d="m285.56 8.057c8.341 0 15.103 6.761 15.103 15.103v187.441c-16.132 11.35-27.415 30.021-29.744 51.599h-.462v-239.041c.001-8.34 6.763-15.102 15.103-15.102z" fill="#ce3043"/><path d="m175.046 198.962h-11.273c-1.202 4.887-1.913 9.917-1.913 15.13 0 5.056.666 9.941 1.802 14.69h11.384c20.224 0 36.677 18.713 36.677 41.714v218.535c0 8.221 6.688 14.91 14.91 14.91 8.221 0 14.91-6.688 14.91-14.91v-218.535c-.001-39.443-29.831-71.534-66.497-71.534z" fill="#ef3a47"/><path d="m336.954 198.962h11.273c1.202 4.887 1.913 9.917 1.913 15.13 0 5.056-.666 9.941-1.802 14.69h-11.384c-20.224 0-36.677 18.713-36.677 41.714v218.535c0 8.221-6.688 14.91-14.91 14.91-8.221 0-14.91-6.688-14.91-14.91v-218.535c.001-39.443 29.831-71.534 66.497-71.534z" fill="#ef3a47"/><path d="m161.86 214.092c0 40.361 42.377 69.801 28.455 106.216-30.336 79.342-182.804 35.175-182.804-106.216s152.468-185.558 182.803-106.215c13.924 36.415-28.454 65.854-28.454 106.215z" fill="#f77474"/><path d="m190.314 107.877c-11.986-31.348-43.037-43.399-76.217-37.808 20.722 3.87 37.946 16.286 46.175 37.808 13.923 36.415-28.455 65.855-28.455 106.216s42.377 69.801 28.455 106.216c-8.23 21.523-25.454 33.937-46.175 37.808 33.179 5.591 64.231-6.461 76.217-37.808 13.923-36.415-28.455-65.854-28.455-106.216s42.379-69.801 28.455-106.216z" fill="#e55555"/><path d="m350.14 214.092c0 40.361-42.377 69.801-28.455 106.216 30.336 79.343 182.804 35.175 182.804-106.216s-152.468-185.558-182.803-106.215c-13.924 36.415 28.454 65.854 28.454 106.215z" fill="#f77474"/><path d="m367.86 70.069c50.799 8.56 106.587 58.496 106.587 144.023s-55.788 135.465-106.587 144.024c55.668 10.399 136.629-40.987 136.629-144.023s-80.961-154.424-136.629-144.024z" fill="#e55555"/><path d="m168.286 185.536s2.268-38.953-17.614-36.167c-21.154 2.965-6.371 32.252-19.638 36.354-9.352 2.89-27.134-9.676-30.717 4.261-3.033 11.796 25.743 16.48 22.896 31.87-2.846 15.391-29.828 21.404-18.791 36.219 10.74 14.416 33.406-13.804 35.111-2.435 2.991 19.944 30.916 25.584 30.003-5.124-.05-1.696-.1-3.476-.148-5.314-4.338-9.795-7.528-20.04-7.528-31.107 0-10.111 2.659-19.535 6.426-28.557z" fill="#ffc89f"/><path d="m168.286 185.536s1.825-31.388-12.187-35.792c-9.214 20.096-24.282 40.28-24.282 64.348 0 21.349 11.856 39.641 20.965 57.527 8.308 2.15 17.276-3.487 16.753-21.107-.05-1.696-.1-3.476-.148-5.314-.265-.6-.527-1.201-.783-1.804-.01-.023-.02-.046-.029-.069-.247-.582-.49-1.166-.727-1.75-.015-.037-.03-.074-.046-.111-.239-.59-.473-1.182-.702-1.775-.008-.022-.017-.044-.026-.067-.952-2.479-1.811-4.99-2.543-7.54-.017-.059-.032-.118-.049-.177-.157-.553-.309-1.107-.455-1.663-.041-.158-.079-.316-.119-.475-.117-.461-.231-.921-.338-1.384-.047-.203-.092-.408-.137-.612-.094-.419-.185-.838-.271-1.26-.047-.231-.092-.463-.137-.695-.077-.398-.151-.797-.221-1.197-.043-.247-.085-.496-.126-.743-.063-.389-.123-.778-.179-1.169-.037-.256-.074-.512-.108-.769-.051-.39-.097-.78-.141-1.172-.029-.257-.059-.515-.085-.774-.04-.4-.073-.802-.105-1.204-.02-.25-.043-.501-.06-.752-.029-.434-.049-.87-.069-1.307-.01-.22-.024-.441-.032-.662-.022-.644-.034-1.29-.035-1.939 0-.013-.001-.026-.001-.039 0-.618.01-1.233.03-1.846.001-.013 0-.026.001-.038.012-.381.035-.759.055-1.138.013-.244.02-.49.035-.733.019-.291.047-.581.07-.871.026-.328.048-.658.079-.984.027-.28.062-.559.093-.839.036-.333.069-.668.111-1 .037-.295.083-.589.124-.883.044-.314.084-.63.133-.943.038-.242.082-.483.123-.724.061-.365.119-.729.185-1.092.037-.199.079-.398.118-.597.077-.401.154-.802.238-1.202.041-.193.087-.385.13-.577.089-.405.177-.81.273-1.213.036-.15.076-.3.113-.451.108-.442.217-.883.333-1.322.04-.149.083-.296.123-.445.119-.441.239-.88.367-1.319.033-.112.068-.223.101-.335.139-.473.28-.944.428-1.415.03-.094.062-.188.092-.282.155-.487.311-.972.475-1.457.024-.071.049-.141.074-.211.172-.507.346-1.012.528-1.516.022-.06.045-.12.066-.18.186-.515.375-1.027.569-1.539.008-.02.016-.04.023-.059.209-.549.422-1.097.64-1.642.025-.062.05-.123.075-.185.203-.506.409-1.01.619-1.514-.002.002-.001.001-.001-.001z" fill="#f7b081"/><path d="m343.714 185.536s-2.268-38.953 17.614-36.167c21.154 2.965 6.371 32.252 19.638 36.354 9.352 2.89 27.134-9.676 30.717 4.261 3.033 11.796-25.743 16.48-22.896 31.87 2.846 15.391 29.828 21.404 18.791 36.219-10.74 14.416-33.406-13.804-35.111-2.435-2.991 19.944-30.916 25.584-30.003-5.124.05-1.696.1-3.476.148-5.314 4.338-9.795 7.528-20.04 7.528-31.107 0-10.111-2.659-19.535-6.426-28.557z" fill="#ffc89f"/><path d="m226.44.547c-12.469 0-22.614 10.144-22.614 22.614v40.654c0 4.148 3.362 7.51 7.51 7.51s7.51-3.363 7.51-7.511v-40.654c0-4.187 3.406-7.593 7.593-7.593s7.592 3.406 7.592 7.593v199.63c-1.301-1.831-2.688-3.595-4.14-5.303-.064-.075-.127-.15-.191-.224-.734-.857-1.483-1.7-2.254-2.526-.045-.048-.088-.097-.133-.145-.792-.843-1.602-1.67-2.432-2.477-.162-.158-.329-.309-.493-.466-.605-.577-1.217-1.146-1.841-1.703-.335-.3-.675-.597-1.015-.891-.456-.393-.917-.778-1.382-1.161-.408-.336-.814-.674-1.228-1.001-.025-.02-.049-.041-.074-.061v-112.976c0-4.148-3.362-7.511-7.51-7.511s-7.51 3.363-7.51 7.511v103.818c-8.851-4.006-18.578-6.223-28.78-6.223h-1.013c.073-.193.141-.387.215-.58.065-.167.134-.337.2-.506 2.928-7.424 6.764-14.649 10.543-21.755 10.463-19.679 21.282-40.028 12.338-63.417-8.873-23.209-27.68-38.387-52.95-42.734-36.679-6.311-78.896 11.33-107.55 44.941-2.691 3.156-2.313 7.897.844 10.588 3.156 2.692 7.897 2.312 10.588-.843 12.758-14.967 28.649-26.594 45.955-33.625 16.346-6.64 32.81-8.805 47.618-6.257 19.836 3.412 34.562 15.236 41.466 33.295 6.242 16.326-1.227 31.498-10.416 48.823-1.577-4.872-3.947-9.427-7.488-12.694-4.291-3.957-9.751-5.603-15.765-4.757-17.921 2.513-18.858 18.253-19.419 27.657-.174 2.922-.465 7.781-1.347 8.943-.014.005-.029.01-.049.016-1.532.472-5.703-.465-8.75-1.148-4.53-1.017-9.215-2.067-13.801-1.457-6.738.898-11.434 5.221-13.22 12.171-2.726 10.597 6.512 17.098 13.257 21.844 6.134 4.316 10.111 7.381 9.528 10.53-.724 3.914-5.104 7.777-9.339 11.512-6.965 6.143-18.623 16.423-8.089 30.56 4.412 5.923 11.048 8.321 18.693 6.745 5.278-1.087 10.188-3.776 14.519-6.15.558-.305 1.198-.656 1.85-1.005 3.651 10.209 12.789 17.432 22.617 17.432.592 0 1.188-.026 1.782-.079 5.912-.53 11.054-3.689 14.479-8.895.282-.429.534-.887.79-1.341 9.075 17.132 16.356 32.179 10.169 48.358-12.022 31.446-43.721 37.588-69.382 32.849-24.848-4.588-49.261-19.539-66.984-41.018-20.878-25.301-31.914-58.279-31.914-95.361 0-28.031 6.157-53.377 18.3-75.33 2.008-3.629.693-8.199-2.937-10.207-3.629-2.008-8.199-.691-10.206 2.937-13.392 24.204-20.18 51.995-20.18 82.599 0 40.614 12.223 76.897 35.347 104.923 19.934 24.161 47.578 41.011 75.842 46.23 6.252 1.155 12.399 1.728 18.375 1.728 11.899 0 23.106-2.275 33.057-6.77 16.196-7.316 28.197-20.184 34.71-37.214 8.943-23.388-1.877-43.737-12.339-63.416-4.037-7.591-8.133-15.32-11.123-23.282h1.178c16.083 0 29.167 15.343 29.167 34.204v218.535c0 12.362 10.058 22.42 22.42 22.42s22.42-10.057 22.42-22.42v-218.534c0-2.144-.103-4.261-.26-6.362.164-.618.26-1.265.26-1.935v-239.039c-.002-12.469-10.146-22.613-22.614-22.613zm-69.919 263.995c-3.219.29-8.524-3.107-9.56-10.019-.76-5.062-3.797-7.268-5.54-8.132-1.488-.738-2.983-1.05-4.491-1.05-4.061 0-8.21 2.273-12.535 4.641-9.055 4.96-12.315 5.8-13.95 3.604-1.879-2.522-2.27-3.046 5.979-10.32 5.572-4.914 12.506-11.029 14.174-20.046 2.377-12.857-8.474-20.493-15.654-25.546-2.451-1.725-6.483-4.561-7.291-6.047.117-.4.226-.631.29-.747 1.486-.472 6.242.595 8.831 1.177 5.471 1.228 11.127 2.498 16.476.843 10.817-3.344 11.474-14.367 11.954-22.416.678-11.355 1.922-13.032 6.51-13.675 1.798-.251 2.696.186 3.494.92 4.398 4.048 5.915 17.499 5.634 26.139-2.268 5.582-4.119 11.356-5.256 17.405-.033.176-.065.352-.097.527-.143.791-.275 1.585-.394 2.385-.1.675-.191 1.349-.271 2.021-.024.21-.059.416-.082.627-.017.156-.023.31-.038.467-.099.97-.18 1.938-.237 2.903-.005.079-.013.156-.018.234-.008.141-.007.282-.013.424-.053 1.079-.087 2.155-.087 3.233 0 .659.01 1.318.03 1.978.008.282.025.566.037.848.009.209.017.419.027.628.006.11.008.221.015.331.003.054.006.109.009.163.021.354.051.708.078 1.061.023.305.043.611.07.917.027.301.061.604.092.905.027.267.053.535.083.8.011.096.022.191.033.287.044.373.097.746.147 1.12.04.296.078.593.122.891.019.128.037.255.056.383.067.438.14.872.214 1.307.019.11.04.22.059.331.052.292.108.587.164.88 1.313 6.976 3.579 13.581 6.331 19.955.036 1.323.073 2.612.109 3.857.244 8.066-1.918 13.484-5.504 13.806zm77.51 224.49c0 4.08-3.319 7.399-7.399 7.399s-7.399-3.319-7.399-7.399v-218.536c0-27.143-19.823-49.225-44.188-49.225h-5.146c-.053-.38-.119-.756-.164-1.136-.006-.05-.011-.099-.016-.148-.107-.923-.189-1.851-.247-2.781-.006-.096-.01-.192-.015-.289-.053-.938-.085-1.879-.085-2.825 0-.923.033-1.841.083-2.756.008-.147.015-.293.025-.441.095-1.484.268-2.957.485-4.422h5.082c11.741 0 22.683 3.758 31.885 10.202.03.021.055.047.085.068 3.703 2.606 7.085 5.61 10.109 8.946.041.046.08.093.121.138.658.73 1.296 1.478 1.919 2.239.176.216.349.437.523.655.481.603.95 1.215 1.409 1.836.22.298.438.598.652.9.404.567.795 1.141 1.181 1.721.222.335.446.671.663 1.01.374.586.733 1.182 1.088 1.782.197.332.399.661.59.997.402.707.785 1.425 1.162 2.148.12.23.247.456.366.688 1.006 1.994 1.917 4.046 2.722 6.15.022.058.042.118.064.177.379.997.735 2.006 1.067 3.025.037.112.07.226.106.339.314.981.609 1.971.878 2.971.03.11.058.222.087.333.269 1.018.518 2.046.741 3.082.018.085.036.169.054.254.229 1.085.435 2.178.612 3.281.006.035.012.07.017.106.184 1.153.34 2.314.467 3.484.001.012.004.024.006.037.262 2.447.413 4.932.413 7.454v218.533h-.003z"/><path d="m476.653 109.169c-19.933-24.16-47.578-41.01-75.842-46.231-18.699-3.452-36.484-1.709-51.431 5.042-16.196 7.316-28.197 20.184-34.71 37.214-8.943 23.389 1.877 43.737 12.339 63.417 3.775 7.101 7.609 14.321 10.537 21.739.069.175.141.352.209.528.074.19.141.383.213.574h-1.013c-10.202 0-19.929 2.216-28.78 6.223v-174.515c0-12.469-10.144-22.614-22.614-22.614-12.468 0-22.613 10.144-22.613 22.614v239.04c0 .67.096 1.317.261 1.935-.157 2.101-.261 4.218-.261 6.362v80.956c0 4.148 3.363 7.511 7.51 7.511 4.149 0 7.51-3.363 7.51-7.511v-80.956c0-2.523.15-5.007.413-7.454.001-.012.004-.024.006-.037.126-1.17.282-2.331.467-3.484.006-.035.012-.07.017-.106.177-1.103.384-2.197.613-3.283.018-.083.035-.167.053-.25.223-1.037.472-2.066.742-3.085.029-.111.057-.222.087-.332.27-1 .565-1.99.878-2.971.036-.113.069-.226.106-.339.332-1.019.689-2.028 1.068-3.025.022-.058.042-.118.064-.177.806-2.104 1.715-4.156 2.722-6.15.117-.232.245-.458.366-.688.376-.723.759-1.442 1.161-2.148.191-.336.393-.665.59-.997.354-.599.714-1.195 1.088-1.781.217-.34.441-.675.663-1.01.386-.581.778-1.156 1.182-1.722.214-.301.432-.601.65-.898.459-.621.929-1.234 1.41-1.837.174-.218.346-.439.523-.655.623-.761 1.261-1.509 1.919-2.239.041-.046.08-.093.121-.138 3.023-3.335 6.405-6.34 10.108-8.946.03-.021.056-.047.085-.068 9.201-6.444 20.143-10.202 31.885-10.202h5.082c.216 1.466.39 2.938.485 4.423.009.146.017.292.024.439.051.915.083 1.834.083 2.757 0 .946-.032 1.887-.085 2.825-.005.096-.009.192-.015.289-.058.93-.14 1.858-.247 2.781-.006.049-.011.099-.017.148-.045.381-.111.757-.164 1.136h-5.146c-24.365 0-44.188 22.082-44.188 49.225v218.535c0 4.08-3.319 7.399-7.399 7.399s-7.399-3.319-7.399-7.399v-107.539c0-4.148-3.362-7.51-7.51-7.51s-7.51 3.363-7.51 7.51v107.537c0 12.362 10.058 22.42 22.42 22.42s22.42-10.057 22.42-22.42v-218.535c0-18.86 13.083-34.204 29.167-34.204h1.178c-2.99 7.961-7.087 15.69-11.123 23.282-10.463 19.679-21.282 40.028-12.339 63.416 8.799 23.013 27.401 38.155 52.381 42.635 5.101.914 10.313 1.361 15.592 1.361 32.098-.001 66.505-16.515 91.205-44.671 2.735-3.118 2.425-7.863-.692-10.599-3.117-2.735-7.864-2.424-10.599.693-25.364 28.913-61.812 44-92.855 38.431-19.594-3.514-34.155-15.309-41-33.213-6.187-16.179 1.095-31.226 10.169-48.358.257.453.509.911.79 1.341 3.425 5.206 8.567 8.366 14.479 8.895.597.053 1.191.079 1.782.079 9.827 0 18.965-7.224 22.616-17.432.652.349 1.293.7 1.851 1.005 4.331 2.373 9.241 5.063 14.519 6.15 7.643 1.576 14.28-.821 18.693-6.744 10.533-14.138-1.125-24.418-8.089-30.561-4.235-3.735-8.616-7.598-9.339-11.511-.583-3.149 3.395-6.215 9.528-10.531 6.744-4.747 15.982-11.247 13.257-21.844-1.786-6.95-6.482-11.272-13.22-12.171-4.582-.613-9.27.44-13.801 1.457-3.048.684-7.222 1.62-8.75 1.148-.02-.006-.035-.011-.049-.016-.883-1.162-1.173-6.021-1.347-8.944-.56-9.404-1.499-25.144-19.419-27.657-6.018-.844-11.474.799-15.765 4.757-3.542 3.266-5.911 7.821-7.488 12.694-9.187-17.325-16.657-32.497-10.416-48.823 12.023-31.445 43.725-37.587 69.382-32.849 24.848 4.587 49.261 19.538 66.984 41.018 20.878 25.304 31.913 58.28 31.913 95.363 0 27.685-6.011 52.764-17.867 74.541-1.983 3.643-.639 8.203 3.005 10.187 3.641 1.982 8.203.638 10.187-3.004 13.069-24.005 19.696-51.501 19.696-81.723-.005-40.615-12.228-76.897-35.352-104.925zm-198.684 113.619v-199.628c0-4.187 3.405-7.593 7.592-7.593s7.593 3.406 7.593 7.593v183.67c-.025.02-.049.041-.074.061-.417.328-.823.668-1.233 1.005-.462.38-.92.763-1.373 1.153-.343.297-.685.596-1.024.899-.619.554-1.227 1.119-1.828 1.691-.167.16-.339.315-.505.477-.828.806-1.637 1.631-2.427 2.472-.048.051-.094.103-.141.154-.768.822-1.515 1.662-2.247 2.517-.065.076-.13.152-.195.228-1.452 1.708-2.837 3.472-4.138 5.301zm78.818-65.056c.799-.737 1.695-1.178 3.498-.924 4.587.644 5.832 2.32 6.509 13.675.481 8.049 1.138 19.073 11.955 22.416 5.35 1.654 11.005.385 16.476-.843 2.59-.582 7.343-1.647 8.831-1.177.064.116.173.347.29.747-.809 1.486-4.84 4.322-7.291 6.047-7.18 5.053-18.031 12.689-15.654 25.547 1.667 9.016 8.602 15.131 14.174 20.045 8.249 7.274 7.858 7.799 5.979 10.32-1.636 2.197-4.897 1.356-13.949-3.605-5.93-3.249-11.532-6.316-17.026-3.591-1.742.864-4.78 3.07-5.54 8.133-1.036 6.909-6.308 10.298-9.56 10.018-3.586-.321-5.748-5.74-5.508-13.807.036-1.244.073-2.532.109-3.854 2.752-6.374 5.017-12.979 6.331-19.956.056-.293.112-.587.164-.879.02-.111.04-.222.059-.332.074-.434.147-.868.214-1.305.02-.129.038-.257.057-.387.044-.296.082-.591.122-.886.051-.375.103-.75.147-1.124.012-.096.022-.191.033-.287.03-.266.056-.534.083-.801.031-.301.065-.604.092-.905.027-.306.047-.612.07-.917.027-.353.057-.708.078-1.061.003-.054.006-.108.009-.163.006-.11.009-.221.015-.331.01-.202.018-.405.027-.607.012-.29.03-.58.038-.87.02-.66.03-1.318.03-1.976 0-1.079-.034-2.156-.087-3.235-.007-.14-.006-.281-.013-.422-.004-.079-.013-.156-.018-.234-.057-.966-.137-1.935-.237-2.906-.016-.155-.021-.308-.038-.464-.023-.21-.057-.417-.082-.627-.08-.671-.17-1.345-.271-2.021-.117-.8-.25-1.594-.394-2.385-.032-.175-.064-.35-.097-.527-1.138-6.051-2.988-11.827-5.258-17.41-.296-8.616 1.21-22.051 5.633-26.129z"/></svg>